<svg width="159" height="37" viewBox="0 0 159 37" fill="none" xmlns="http://www.w3.org/2000/svg">
<g clip-path="url(#clip0_8_236)">
<path d="M1.64998 4.07031V30.2422H17.8219V32H-0.400803V4.07031H1.64998ZM20.1703 4.07031V32H18.1195V4.07031H20.1703ZM41.6594 4.07031V5.82812L24.7258 30.2422H41.2687V32H22.1281V30.4375L39.589 5.82812H22.5187V4.07031H41.6594ZM42.6211 21.2188V4.07031H44.6719V21.2188C44.6719 27.3646 47.7317 30.4375 53.8515 30.4375C59.9713 30.4375 63.0312 27.3646 63.0312 21.2188V4.07031H65.082V21.2188C65.082 28.5365 61.3385 32.1953 53.8515 32.1953C46.3646 32.1953 42.6211 28.5365 42.6211 21.2188ZM66.532 32V4.07031H69.1687L87.8211 28.5234V4.07031H89.6765V32H88.0164L68.3875 6.375V32H66.532ZM90.8922 32H88.7047L101.341 4.07031H103.783L116.478 32H114.037L109.896 22.625H97.3765L97.982 20.8672H109.134L102.435 5.67188L90.8922 32ZM118.514 4.07031V32H116.463V4.07031H118.514ZM123.011 4.07031V30.2422H139.183V32H120.96V4.07031H123.011ZM138.309 31.0234V28.875C141.238 29.9167 144.467 30.4375 147.996 30.4375C153.842 30.4375 156.766 28.224 156.766 23.7969C156.766 20.5417 154.865 18.9141 151.062 18.9141H145.32C140.125 18.9141 137.527 16.5703 137.527 11.8828C137.527 6.54427 141.336 3.875 148.953 3.875C152.078 3.875 155.105 4.26562 158.035 5.04688V7C155.105 6.08854 152.078 5.63281 148.953 5.63281C142.703 5.63281 139.578 7.71615 139.578 11.8828C139.578 15.2682 141.492 16.9609 145.32 16.9609H151.062C156.232 16.9609 158.816 19.2396 158.816 23.7969C158.816 29.3958 155.21 32.1953 147.996 32.1953C144.467 32.1953 141.238 31.8047 138.309 31.0234Z" fill="black"/>
<line x1="-1" y1="0.5" x2="81" y2="0.5" stroke="black"/>
<path d="M76 36H159.006" stroke="black"/>
</g>
<defs>
<clipPath id="clip0_8_236">
<rect width="159" height="36.5" fill="white"/>
</clipPath>
</defs>
</svg>
